<svg id="logo_mastercard1" xmlns="http://www.w3.org/2000/svg" width="60" height="40" viewBox="0 0 60 40">
  <path id="Path_19480" data-name="Path 19480" d="M0,5A5,5,0,0,1,5,0H55a5,5,0,0,1,5,5V35a5,5,0,0,1-5,5H5a5,5,0,0,1-5-5Z" fill="#fff"/>
  <path id="Path_19481" data-name="Path 19481" d="M22.5,26.869H9.375V3.284H22.5Z" transform="translate(14.062 4.925)" fill="#6c6bbd"/>
  <path id="Path_19482" data-name="Path 19482" d="M20.835,17A14.975,14.975,0,0,1,26.563,5.207a15,15,0,1,0,0,23.586A14.975,14.975,0,0,1,20.835,17Z" transform="translate(3.443 3)" fill="#eb001b"/>
  <path id="Path_19483" data-name="Path 19483" d="M36.266,17A15,15,0,0,1,12,28.793,15,15,0,0,0,12,5.207,15,15,0,0,1,36.266,17Z" transform="translate(17.995 3)" fill="#0099df"/>
</svg>
