<svg id="logo_mastercard" xmlns="http://www.w3.org/2000/svg" width="60" height="40" viewBox="0 0 60 40">
  <path id="Path_19484" data-name="Path 19484" d="M0,5A5,5,0,0,1,5,0H55a5,5,0,0,1,5,5V35a5,5,0,0,1-5,5H5a5,5,0,0,1-5-5Z" fill="#fff"/>
  <path id="Path_19485" data-name="Path 19485" d="M22.251,3.264,9.34,3.308l.391,23.637L22.642,26.9Z" transform="translate(14.009 4.896)" fill="#ff5f00"/>
  <path id="Path_19486" data-name="Path 19486" d="M20.68,17.051A14.958,14.958,0,0,1,26.127,5.2,14.659,14.659,0,0,0,2.348,17.114a15.173,15.173,0,0,0,15.08,15,14.43,14.43,0,0,0,9.092-3.25A15.332,15.332,0,0,1,20.68,17.051Z" transform="translate(3.519 3.019)" fill="#eb001b"/>
  <path id="Path_19487" data-name="Path 19487" d="M36.156,16.946A14.659,14.659,0,0,1,12.378,28.86a14.833,14.833,0,0,0,5.447-11.85A15.4,15.4,0,0,0,11.985,5.2a14.429,14.429,0,0,1,9.092-3.25A15.2,15.2,0,0,1,36.156,16.946Z" transform="translate(17.977 2.921)" fill="#f79e1b"/>
</svg>
