<svg id="logo_mastercard_secureCode" xmlns="http://www.w3.org/2000/svg" width="60" height="40" viewBox="0 0 60 40">
  <path id="Path_19488" data-name="Path 19488" d="M0,5A5,5,0,0,1,5,0H55a5,5,0,0,1,5,5V35a5,5,0,0,1-5,5H5a5,5,0,0,1-5-5Z" fill="#fff"/>
  <path id="Path_19489" data-name="Path 19489" d="M6.458,9.976a2.112,2.112,0,0,0-.843-.361,2.342,2.342,0,0,0-.9-.12,1.668,1.668,0,0,0-.542.06,2.936,2.936,0,0,0-.422.181.726.726,0,0,0-.3.3.857.857,0,0,0-.12.361.451.451,0,0,0,.06.3c.06.06.12.181.241.241a2.938,2.938,0,0,0,.422.181c.181.06.361.06.542.12l.422.06a3.176,3.176,0,0,1,.723.181,1.884,1.884,0,0,1,.6.3,1.071,1.071,0,0,1,.422.482,1.284,1.284,0,0,1,.181.723,1.924,1.924,0,0,1-.181.844,1.708,1.708,0,0,1-.542.6,1.867,1.867,0,0,1-.783.361,4.681,4.681,0,0,1-.964.12,2.7,2.7,0,0,1-.663-.06,2.716,2.716,0,0,1-.663-.181,6.251,6.251,0,0,1-.6-.241L2,14.072l.542-.783a1.26,1.26,0,0,0,.361.241,3.576,3.576,0,0,0,.482.241,1.759,1.759,0,0,0,.542.121,1.668,1.668,0,0,0,.542.06,1.668,1.668,0,0,0,.542-.06,2.936,2.936,0,0,0,.422-.181.726.726,0,0,0,.3-.3.857.857,0,0,0,.12-.361.579.579,0,0,0-.361-.542,3.478,3.478,0,0,0-1.024-.3l-.3-.06a2.716,2.716,0,0,1-.663-.181,1.884,1.884,0,0,1-.6-.3,1.624,1.624,0,0,1-.422-.482,1.285,1.285,0,0,1-.181-.723,1.507,1.507,0,0,1,.181-.783,1.709,1.709,0,0,1,.542-.6,1.867,1.867,0,0,1,.783-.361,4.651,4.651,0,0,1,.9-.12,3.884,3.884,0,0,1,1.2.181,7.84,7.84,0,0,1,1.024.482Zm3.374.482a1.667,1.667,0,0,1,.783.181,2.163,2.163,0,0,1,.6.422,2.488,2.488,0,0,1,.422.663,2.057,2.057,0,0,1,.12.9v.361H8.687a.684.684,0,0,0,.181.482.726.726,0,0,0,.3.3l.361.181a1.025,1.025,0,0,0,.422.06,2.14,2.14,0,0,0,.6-.12,2.814,2.814,0,0,0,.6-.3l.482.663a2.759,2.759,0,0,1-.783.482,4.649,4.649,0,0,1-.9.121,1.924,1.924,0,0,1-.843-.181,2.488,2.488,0,0,1-.663-.422,1.557,1.557,0,0,1-.422-.663,2.012,2.012,0,0,1-.181-.9,2.418,2.418,0,0,1,.181-.9,4.492,4.492,0,0,1,.422-.723,1.56,1.56,0,0,1,.663-.422A1.047,1.047,0,0,1,9.831,10.458Zm-.06.843a.893.893,0,0,0-.422.06.6.6,0,0,0-.3.241,1.057,1.057,0,0,0-.241.3.871.871,0,0,0-.12.422h2.169a1.577,1.577,0,0,0-.361-.783A.96.96,0,0,0,9.771,11.3Zm4.819-.843a1.924,1.924,0,0,1,.843.181,2.674,2.674,0,0,1,.663.482l-.6.6a1.312,1.312,0,0,0-.482-.3,1.759,1.759,0,0,0-.542-.12,1.135,1.135,0,0,0-.482.12.617.617,0,0,0-.361.3.971.971,0,0,0-.241.422,1.759,1.759,0,0,0-.121.542,1.759,1.759,0,0,0,.121.542.971.971,0,0,0,.241.422c.121.121.241.181.361.3a1.135,1.135,0,0,0,.482.121,1.759,1.759,0,0,0,.542-.121,2.113,2.113,0,0,0,.482-.3l.542.6a1.709,1.709,0,0,1-.663.482,1.924,1.924,0,0,1-.843.181,2.417,2.417,0,0,1-.9-.181,1.709,1.709,0,0,1-.663-.482,1.444,1.444,0,0,1-.422-.723,2.058,2.058,0,0,1,0-1.687,4.492,4.492,0,0,1,.422-.723,2.675,2.675,0,0,1,.663-.482A3,3,0,0,1,14.59,10.458Zm6.265,2.53a1.925,1.925,0,0,1-.181.844,2.162,2.162,0,0,1-.422.6,2,2,0,0,1-.6.361,3.023,3.023,0,0,1-.723.12,3.023,3.023,0,0,1-.723-.12,1.25,1.25,0,0,1-.6-.361,1.537,1.537,0,0,1-.422-.6A1.925,1.925,0,0,1,17,12.988v-2.41h.9v2.289a1.175,1.175,0,0,0,.06.482,1.261,1.261,0,0,0,.241.362c.12.06.181.121.3.181a.893.893,0,0,0,.422.06,1.025,1.025,0,0,0,.422-.06,1.317,1.317,0,0,0,.3-.181.553.553,0,0,0,.241-.362,1.175,1.175,0,0,0,.06-.482V10.578h.9Zm3.313-2.53h.361a2.61,2.61,0,0,1,.3.06l-.241.9a2.494,2.494,0,0,0-.361-.12c-.121,0-.241-.06-.361-.06a1.025,1.025,0,0,0-.422.06.6.6,0,0,0-.3.241c-.06.121-.181.241-.181.361a1.175,1.175,0,0,0-.06.482v2.289H22V10.518h.9V11a.962.962,0,0,1,.542-.422A2.247,2.247,0,0,1,24.169,10.458Zm3.012,0a1.666,1.666,0,0,1,.783.181,2.164,2.164,0,0,1,.6.422,2.488,2.488,0,0,1,.422.663,2.057,2.057,0,0,1,.121.9v.361H26.1a.685.685,0,0,0,.181.482.726.726,0,0,0,.3.3l.361.181a1.025,1.025,0,0,0,.422.06,2.137,2.137,0,0,0,.6-.12,2.814,2.814,0,0,0,.6-.3l.422.663a2.759,2.759,0,0,1-.783.482,4.648,4.648,0,0,1-.9.121,1.924,1.924,0,0,1-.843-.181,2.487,2.487,0,0,1-.663-.422,1.558,1.558,0,0,1-.422-.663,2.012,2.012,0,0,1-.181-.9,2.417,2.417,0,0,1,.181-.9,4.493,4.493,0,0,1,.422-.723,1.559,1.559,0,0,1,.663-.422A1.158,1.158,0,0,1,27.181,10.458Zm0,.843a.894.894,0,0,0-.422.06.6.6,0,0,0-.3.241,1.058,1.058,0,0,0-.241.3.873.873,0,0,0-.12.422h2.168a1.577,1.577,0,0,0-.361-.783A.96.96,0,0,0,27.181,11.3Zm5.9-2.771a3.435,3.435,0,0,1,.783.06,3.39,3.39,0,0,1,.723.241,2.164,2.164,0,0,1,.6.422,3.311,3.311,0,0,1,.422.542l-.843.542a1.914,1.914,0,0,0-.723-.663,1.768,1.768,0,0,0-.964-.241,1.924,1.924,0,0,0-.843.181,1.709,1.709,0,0,0-.663.482,1.443,1.443,0,0,0-.422.723,2.2,2.2,0,0,0-.181.9,2.416,2.416,0,0,0,.181.9,2.84,2.84,0,0,0,.422.723,1.56,1.56,0,0,0,.663.422,1.924,1.924,0,0,0,.843.181,1.768,1.768,0,0,0,.964-.241,1.915,1.915,0,0,0,.723-.663l.783.6a3.883,3.883,0,0,1-.482.542,1.251,1.251,0,0,1-.6.361,2.937,2.937,0,0,1-.663.241,3.183,3.183,0,0,1-.783.06,2.794,2.794,0,0,1-1.265-.241,3.734,3.734,0,0,1-1.024-.663,3.007,3.007,0,0,1-.663-1.024,2.794,2.794,0,0,1-.241-1.265,2.794,2.794,0,0,1,.241-1.265,3.729,3.729,0,0,1,.663-1.024,3.006,3.006,0,0,1,1.024-.663A8.8,8.8,0,0,1,33.084,8.53Zm5.362,1.928a2.418,2.418,0,0,1,.9.181,1.908,1.908,0,0,1,.723.482,2.166,2.166,0,0,1,.482.723,2.058,2.058,0,0,1,0,1.687,2.516,2.516,0,0,1-.482.723,2.168,2.168,0,0,1-.723.482,2.2,2.2,0,0,1-.9.181,2.415,2.415,0,0,1-.9-.181,1.907,1.907,0,0,1-.723-.482,2.163,2.163,0,0,1-.482-.723,2.061,2.061,0,0,1,0-1.687,2.52,2.52,0,0,1,.482-.723,2.166,2.166,0,0,1,.723-.482A2.415,2.415,0,0,1,38.446,10.458Zm0,.843a1.759,1.759,0,0,0-.542.12,1.082,1.082,0,0,0-.422.3,2.55,2.55,0,0,0-.3.422,1.759,1.759,0,0,0-.12.542,1.759,1.759,0,0,0,.12.542,1.081,1.081,0,0,0,.3.422,2.558,2.558,0,0,0,.422.3,1.28,1.28,0,0,0,1.084,0,1.081,1.081,0,0,0,.422-.3,2.565,2.565,0,0,0,.3-.422,1.759,1.759,0,0,0,.121-.542,1.759,1.759,0,0,0-.121-.542,1.083,1.083,0,0,0-.3-.422,2.55,2.55,0,0,0-.422-.3A1.759,1.759,0,0,0,38.446,11.3Zm5-.843a1.668,1.668,0,0,1,.783.181,1.311,1.311,0,0,1,.542.422V8.47h.9v6.265h-.9v-.482a.961.961,0,0,1-.542.422,1.668,1.668,0,0,1-.783.181,2.124,2.124,0,0,1-.843-.181,1.709,1.709,0,0,1-.663-.482,1.444,1.444,0,0,1-.422-.723,2.012,2.012,0,0,1-.181-.9,2.417,2.417,0,0,1,.181-.9,4.492,4.492,0,0,1,.422-.723,2.675,2.675,0,0,1,.663-.482A3.936,3.936,0,0,0,43.446,10.458Zm.06.843a1.759,1.759,0,0,0-.542.12,1.082,1.082,0,0,0-.421.3.971.971,0,0,0-.241.422,1.667,1.667,0,0,0-.06.542,1.668,1.668,0,0,0,.06.542.971.971,0,0,0,.241.422,1.082,1.082,0,0,0,.421.3,1.439,1.439,0,0,0,.542.121,1.759,1.759,0,0,0,.542-.121,1.081,1.081,0,0,0,.422-.3.973.973,0,0,0,.241-.422,1.759,1.759,0,0,0,.121-.542,1.759,1.759,0,0,0-.121-.542.973.973,0,0,0-.241-.422,1.081,1.081,0,0,0-.422-.3A1.439,1.439,0,0,0,43.506,11.3Zm5.181-.843a1.668,1.668,0,0,1,.783.181,2.166,2.166,0,0,1,.6.422,2.488,2.488,0,0,1,.422.663,2.057,2.057,0,0,1,.121.9v.361H47.542a.684.684,0,0,0,.181.482.725.725,0,0,0,.3.3l.361.181a1.025,1.025,0,0,0,.422.06,2.141,2.141,0,0,0,.6-.12,2.818,2.818,0,0,0,.6-.3l.422.663a2.759,2.759,0,0,1-.783.482,4.646,4.646,0,0,1-.9.121,1.924,1.924,0,0,1-.843-.181,2.491,2.491,0,0,1-.663-.422,1.558,1.558,0,0,1-.422-.663,2.012,2.012,0,0,1-.181-.9,2.417,2.417,0,0,1,.181-.9,4.493,4.493,0,0,1,.422-.723,1.56,1.56,0,0,1,.663-.422A1.507,1.507,0,0,1,48.687,10.458Zm2.35,4.277v-.181h.06v-.06h-.241v.06h.06Zm.421,0v-.241H51.4l-.06.181-.06-.181h-.06v.241h.06v-.181l.06.181h.06l.06-.181ZM48.627,11.3a.894.894,0,0,0-.422.06.6.6,0,0,0-.3.241,1.061,1.061,0,0,0-.241.3.871.871,0,0,0-.12.422h2.168a1.579,1.579,0,0,0-.361-.783A.96.96,0,0,0,48.627,11.3Z" transform="translate(3 12.705)" fill="#f59e1f"/>
  <path id="Path_19490" data-name="Path 19490" d="M9.072,11.458H8.048V6.277L6.241,10.8H5.157L3.289,6.277V11.4H2.265V5.133H3.831L5.639,9.651,7.446,5.133H9.012v6.325Zm5.361,0H13.47v-.542a2.079,2.079,0,0,1-.542.482,1.668,1.668,0,0,1-.783.181A1.924,1.924,0,0,1,11.3,11.4a1.709,1.709,0,0,1-.663-.482,2.166,2.166,0,0,1-.482-.723,2.417,2.417,0,0,1-.181-.9,2.2,2.2,0,0,1,.181-.9,1.536,1.536,0,0,1,.482-.723,2.675,2.675,0,0,1,.663-.482A1.924,1.924,0,0,1,12.145,7a1.507,1.507,0,0,1,.783.181,1.063,1.063,0,0,1,.542.482V7.12h.964ZM12.265,7.9a1.759,1.759,0,0,0-.542.12,1.081,1.081,0,0,0-.422.3.971.971,0,0,0-.241.422,1.668,1.668,0,0,0-.06.542,1.668,1.668,0,0,0,.06.542.971.971,0,0,0,.241.422,1.081,1.081,0,0,0,.422.3,1.759,1.759,0,0,0,.542.12,1.759,1.759,0,0,0,.542-.12,1.081,1.081,0,0,0,.422-.3.971.971,0,0,0,.241-.422,1.759,1.759,0,0,0,.12-.542,1.759,1.759,0,0,0-.12-.542,2.62,2.62,0,0,0-.241-.422,1.081,1.081,0,0,0-.422-.3A.9.9,0,0,0,12.265,7.9Zm6.506.3c-.06-.06-.12-.06-.241-.12s-.181-.06-.3-.12a.764.764,0,0,0-.361-.06c-.12,0-.241-.06-.422-.06a1.512,1.512,0,0,0-.6.12c-.12.12-.241.241-.241.361a.221.221,0,0,0,.06.181c.06.06.06.12.181.12.06.06.12.06.241.06a2.609,2.609,0,0,0,.3.06l.422.06a1.8,1.8,0,0,1,1.084.422,1.054,1.054,0,0,1,.422.843,1.438,1.438,0,0,1-.12.542c-.06.181-.241.3-.361.422a1.885,1.885,0,0,1-.6.3,3.555,3.555,0,0,1-.843.12h-.361c-.12,0-.3-.06-.482-.06a4.154,4.154,0,0,1-.482-.181,1.311,1.311,0,0,1-.482-.3L16,10.193c.06.06.181.12.241.181.12.06.181.12.3.12.12.06.241.06.361.12.12,0,.3.06.482.06a2.247,2.247,0,0,0,.723-.12.436.436,0,0,0,.241-.361.331.331,0,0,0-.181-.3,2.8,2.8,0,0,0-.542-.181l-.422-.06a1.8,1.8,0,0,1-1.084-.422,1.094,1.094,0,0,1-.361-.843,1.782,1.782,0,0,1,.12-.6.81.81,0,0,1,.361-.422c.181-.12.361-.181.542-.3a3.024,3.024,0,0,1,.723-.12,4.681,4.681,0,0,1,.964.12,1.867,1.867,0,0,1,.783.361Zm4.458-.241H21.6V9.831a.763.763,0,0,0,.06.361c.06.12.06.181.12.241a.313.313,0,0,0,.241.121c.06,0,.18.06.241.06a1.026,1.026,0,0,0,.422-.06,2.941,2.941,0,0,0,.422-.181l.361.723a1.885,1.885,0,0,1-.6.3,3.025,3.025,0,0,1-.723.12A1.5,1.5,0,0,1,21,11.1a1.7,1.7,0,0,1-.422-1.265V7.9h-.843V7.06h.843V5.735h.964V7.06h1.627v.9ZM26.12,7a1.925,1.925,0,0,1,.843.181,1.71,1.71,0,0,1,.663.482,2.083,2.083,0,0,1,.422.723,2.417,2.417,0,0,1,.181.9v.361H25.036a.684.684,0,0,0,.181.482,1.6,1.6,0,0,0,.3.361c.12.06.241.181.361.181a1.025,1.025,0,0,0,.422.06,2.562,2.562,0,0,0,.663-.12,1.25,1.25,0,0,0,.6-.361l.482.663a2.364,2.364,0,0,1-.844.482,4.68,4.68,0,0,1-.964.12,2.416,2.416,0,0,1-.9-.181,2.521,2.521,0,0,1-.723-.482,2.166,2.166,0,0,1-.482-.723,2.417,2.417,0,0,1-.181-.9,2.011,2.011,0,0,1,.181-.9,2.083,2.083,0,0,1,.422-.723,2.675,2.675,0,0,1,.663-.482A4.647,4.647,0,0,1,26.12,7Zm0,.843a.893.893,0,0,0-.422.06,1.259,1.259,0,0,0-.361.241.768.768,0,0,0-.241.361,1.117,1.117,0,0,0-.121.422H27.2a1.36,1.36,0,0,0-.361-.783A.811.811,0,0,0,26.12,7.843ZM31.422,7h.361a.857.857,0,0,1,.362.12l-.241.9c-.121-.06-.241-.06-.361-.12-.12,0-.241-.06-.361-.06a1.025,1.025,0,0,0-.422.06.6.6,0,0,0-.3.241c-.06.12-.181.241-.241.361a1.174,1.174,0,0,0-.06.482v2.349h-.964V7h.9v.482A1.423,1.423,0,0,1,30.638,7,3.394,3.394,0,0,0,31.422,7Zm3.253,0a2.416,2.416,0,0,1,.9.181,1.645,1.645,0,0,1,.723.542l-.6.663c-.181-.121-.3-.241-.482-.361a1.759,1.759,0,0,0-.542-.12,1.135,1.135,0,0,0-.482.12,1.078,1.078,0,0,0-.422.3.971.971,0,0,0-.241.422,1.759,1.759,0,0,0-.12.542,1.759,1.759,0,0,0,.12.542,2.619,2.619,0,0,0,.241.422,1.078,1.078,0,0,0,.422.3,1.418,1.418,0,0,0,.482.12,2.142,2.142,0,0,0,.6-.12,1.311,1.311,0,0,0,.482-.3l.6.663a1.645,1.645,0,0,1-.723.542,2.415,2.415,0,0,1-.9.181,2.01,2.01,0,0,1-.9-.181,2.215,2.215,0,0,1-1.2-1.2,2.349,2.349,0,0,1,0-1.807,1.536,1.536,0,0,1,.482-.723,2.166,2.166,0,0,1,.723-.482A1.177,1.177,0,0,1,34.675,7ZM41.3,11.458h-.964v-.542a2.079,2.079,0,0,1-.542.482,1.668,1.668,0,0,1-.783.181,1.924,1.924,0,0,1-.843-.181,1.709,1.709,0,0,1-.663-.482,2.166,2.166,0,0,1-.482-.723,2.417,2.417,0,0,1-.181-.9,2.2,2.2,0,0,1,.181-.9,1.536,1.536,0,0,1,.482-.723,2.675,2.675,0,0,1,.663-.482A1.924,1.924,0,0,1,39.012,7a1.508,1.508,0,0,1,.783.181,1.063,1.063,0,0,1,.542.482V7.12H41.3ZM39.132,7.9a1.758,1.758,0,0,0-.542.12,1.081,1.081,0,0,0-.422.3.971.971,0,0,0-.241.422,1.668,1.668,0,0,0-.06.542c0,.181.06.361.06.542a.971.971,0,0,0,.241.422,1.081,1.081,0,0,0,.422.3,1.28,1.28,0,0,0,1.084,0,1.081,1.081,0,0,0,.422-.3.971.971,0,0,0,.241-.422,1.759,1.759,0,0,0,.12-.542,1.759,1.759,0,0,0-.12-.542,2.62,2.62,0,0,0-.241-.422,1.081,1.081,0,0,0-.422-.3A.9.9,0,0,0,39.132,7.9ZM44.855,7h.361a.854.854,0,0,1,.361.12l-.241.9c-.12-.06-.241-.06-.362-.12-.12,0-.241-.06-.361-.06a1.025,1.025,0,0,0-.422.06.6.6,0,0,0-.3.241c-.06.12-.181.241-.241.361a1.174,1.174,0,0,0-.06.482v2.349h-.964V7h.9v.482A1.423,1.423,0,0,1,44.072,7,3.394,3.394,0,0,0,44.855,7Zm3.132,0a1.508,1.508,0,0,1,.783.181,1.063,1.063,0,0,1,.542.482V4.952h.964v6.506h-.964v-.542a2.082,2.082,0,0,1-.542.482,1.668,1.668,0,0,1-.783.181,1.923,1.923,0,0,1-.843-.181,1.709,1.709,0,0,1-.663-.482A2.166,2.166,0,0,1,46,10.193a2.417,2.417,0,0,1-.181-.9,2.2,2.2,0,0,1,.181-.9,1.536,1.536,0,0,1,.482-.723,2.675,2.675,0,0,1,.663-.482A1.923,1.923,0,0,1,47.988,7Zm3.374,4.036h.12a.059.059,0,0,1,.06.06l.06.06V11.4a.059.059,0,0,1-.06.06l-.06.06h-.241a.059.059,0,0,1-.06-.06l-.06-.06v-.241a.059.059,0,0,1,.06-.06l.06-.06Zm0,.482h.06a.059.059,0,0,0,.06-.06l.06-.06v-.121a.059.059,0,0,0-.06-.06l-.06-.06H51.3a.059.059,0,0,0-.06.06l-.06.06V11.4a.059.059,0,0,0,.06.06l.06.06Zm0-.361h.06v.12h-.06l.06.121h-.06l-.06-.121V11.4h-.06v-.241Zm-.06.06v.06h0ZM48.108,7.9a1.759,1.759,0,0,0-.542.12,1.078,1.078,0,0,0-.421.3.971.971,0,0,0-.241.422.9.9,0,0,0-.121.542c0,.181.06.361.06.542a.971.971,0,0,0,.241.422,1.078,1.078,0,0,0,.422.3,1.281,1.281,0,0,0,1.084,0,1.08,1.08,0,0,0,.422-.3.971.971,0,0,0,.241-.422,1.759,1.759,0,0,0,.121-.542,1.759,1.759,0,0,0-.121-.542,2.62,2.62,0,0,0-.241-.422,1.08,1.08,0,0,0-.422-.3A.649.649,0,0,0,48.108,7.9Z" transform="translate(3.398 7.428)" fill="#e41522"/>
</svg>
