<svg id="logo_VISA" xmlns="http://www.w3.org/2000/svg" width="60" height="40" viewBox="0 0 60 40">
  <path id="Path_19474" data-name="Path 19474" d="M0,5A5,5,0,0,1,5,0H55a5,5,0,0,1,5,5V35a5,5,0,0,1-5,5H5a5,5,0,0,1-5-5Z" fill="#fff"/>
  <path id="Path_19475" data-name="Path 19475" d="M27.41,5.018H24.266a2.068,2.068,0,0,0-2.12,1.243L16.152,19.93h4.24s.731-1.827.877-2.266h5.19c.146.512.511,2.193.511,2.193h3.8Zm-4.971,9.576c.365-.877,1.608-4.167,1.608-4.167a10.22,10.22,0,0,0,.512-1.389l.292,1.316s.8,3.582.95,4.313H22.439Z" transform="translate(24.228 7.526)" fill="#3362ab"/>
  <path id="Path_19476" data-name="Path 19476" d="M23.243,15.164c0,3.07-2.778,5.117-7.091,5.117a11.982,11.982,0,0,1-4.532-.8l.585-3.363.512.219a8.064,8.064,0,0,0,3.8.8c1.17,0,2.412-.439,2.412-1.462,0-.658-.512-1.1-2.12-1.827-1.535-.731-3.582-1.9-3.582-4.02,0-2.924,2.851-4.9,6.871-4.9a9.329,9.329,0,0,1,3.655.658L23.17,8.8l-.292-.292a7.855,7.855,0,0,0-3.07-.585c-1.535.073-2.266.731-2.266,1.316,0,.658.877,1.17,2.266,1.827C22.146,12.167,23.243,13.409,23.243,15.164Z" transform="translate(17.43 7.395)" fill="#3362ab"/>
  <path id="Path_19477" data-name="Path 19477" d="M2,5.251l.073-.292H8.36A1.55,1.55,0,0,1,10.114,6.2L11.5,12.781C10.114,9.272,6.9,6.421,2,5.251Z" transform="translate(3 7.439)" fill="#f9b50b"/>
  <path id="Path_19478" data-name="Path 19478" d="M17.936,5.061,11.576,19.9H7.263L3.608,7.474a16.108,16.108,0,0,1,5.629,6.14l.439,1.535L13.623,4.988h4.313Z" transform="translate(5.412 7.482)" fill="#3362ab"/>
  <path id="Path_19479" data-name="Path 19479" d="M11.547,4.988h4.021L13.009,19.9H8.988Z" transform="translate(13.482 7.482)" fill="#3362ab"/>
</svg>
